<svg width="221" height="43" viewBox="0 0 221 43" fill="none" xmlns="http://www.w3.org/2000/svg">
<path d="M54.8901 25.3617V25.0888C54.8901 19.3151 59.0637 15.7954 64.2032 15.7954C68.3767 15.7954 72.2405 17.6072 72.6893 22.731H67.962C67.6181 20.6462 66.3399 19.6896 64.3056 19.6896C61.7176 19.6896 59.993 21.6028 59.993 25.0187V25.2917C59.993 28.8791 61.6151 30.7247 64.408 30.7247C66.4082 30.7247 68.0303 29.5627 68.2718 27.275H72.7917C72.5161 31.5122 69.4109 34.4497 64.1666 34.4497C58.9222 34.4497 54.8877 31.203 54.8877 25.3617H54.8901Z" fill="#122A5C"/>
<path d="M74.0352 25.3279V25.0549C74.0352 19.4528 78.1404 15.7954 83.5555 15.7954C88.9706 15.7954 93.0417 19.3828 93.0417 24.9511V25.224C93.0417 30.8624 88.9365 34.4473 83.5214 34.4473C78.1063 34.4473 74.0352 30.8938 74.0352 25.3255V25.3279ZM87.9705 25.2603V25.0211C87.9705 21.6053 86.3484 19.5543 83.5555 19.5543C80.7626 19.5543 79.1405 21.5352 79.1405 24.9535V25.2265C79.1405 28.6423 80.7284 30.6933 83.5555 30.6933C86.3826 30.6933 87.9705 28.6423 87.9705 25.2603Z" fill="#122A5C"/>
<path d="M95.5933 16.2061H100.596V19.0422C101.494 17.2666 103.46 15.7954 106.46 15.7954C110.014 15.7954 112.531 17.914 112.531 22.6972V34.0729H107.528V23.4122C107.528 20.9868 106.563 19.8249 104.355 19.8249C102.148 19.8249 100.594 21.1221 100.594 23.7529V34.0705H95.5908V16.2013L95.5933 16.2061Z" fill="#122A5C"/>
<path d="M114.912 25.3617V25.0888C114.912 19.3151 119.086 15.7954 124.225 15.7954C128.399 15.7954 132.262 17.6072 132.711 22.731H127.984C127.64 20.6462 126.362 19.6896 124.328 19.6896C121.74 19.6896 120.015 21.6028 120.015 25.0187V25.2917C120.015 28.8791 121.637 30.7247 124.43 30.7247C126.43 30.7247 128.052 29.5627 128.294 27.275H132.814C132.538 31.5122 129.433 34.4497 124.189 34.4497C118.944 34.4497 114.91 31.203 114.91 25.3617H114.912Z" fill="#398FC5"/>
<path d="M135.162 16.2061H140.165V19.6219C141.304 17.2304 143.062 15.9669 145.994 15.9331V20.5448C142.304 20.5109 140.165 21.7067 140.165 25.1226V34.0729H135.162V16.2037V16.2061Z" fill="#398FC5"/>
<path d="M147.029 25.3617V25.0888C147.029 19.4504 151.066 15.7954 156.308 15.7954C160.965 15.7954 165.104 18.4938 165.104 24.8834V26.2507H152.098C152.237 29.2221 153.857 30.9324 156.584 30.9324C158.896 30.9324 160.033 29.942 160.345 28.4394H165.072C164.487 32.2997 161.382 34.4522 156.447 34.4522C150.995 34.4522 147.029 31.0701 147.029 25.3642V25.3617ZM160.24 23.2093C160.067 20.5109 158.689 19.2113 156.308 19.2113C154.067 19.2113 152.547 20.68 152.169 23.2093H160.24Z" fill="#398FC5"/>
<path d="M166.483 25.3617V25.0888C166.483 19.3151 170.657 15.7954 175.796 15.7954C179.97 15.7954 183.834 17.6072 184.283 22.731H179.555C179.211 20.6462 177.933 19.6896 175.899 19.6896C173.311 19.6896 171.586 21.6028 171.586 25.0187V25.2917C171.586 28.8791 173.208 30.7247 176.001 30.7247C178.001 30.7247 179.624 29.5627 179.865 27.275H184.385C184.109 31.5122 181.004 34.4497 175.76 34.4497C170.515 34.4497 166.481 31.203 166.481 25.3617H166.483Z" fill="#398FC5"/>
<path d="M185.639 25.3617V25.0888C185.639 19.4504 189.676 15.7954 194.918 15.7954C199.574 15.7954 203.713 18.4938 203.713 24.8834V26.2507H190.707C190.846 29.2221 192.466 30.9324 195.193 30.9324C197.506 30.9324 198.642 29.942 198.954 28.4394H203.682C203.096 32.2997 199.991 34.4522 195.057 34.4522C189.605 34.4522 185.639 31.0701 185.639 25.3642V25.3617ZM198.85 23.2093C198.676 20.5109 197.298 19.2113 194.918 19.2113C192.676 19.2113 191.156 20.68 190.778 23.2093H198.85Z" fill="#398FC5"/>
<path d="M205.047 28.4708H209.704C209.911 30.0773 210.704 31.0001 212.877 31.0001C214.809 31.0001 215.707 30.2826 215.707 29.053C215.707 27.8234 214.638 27.3113 212.05 26.9344C207.255 26.2169 205.391 24.8496 205.391 21.3661C205.391 17.6411 208.84 15.7979 212.533 15.7979C216.534 15.7979 219.536 17.2328 219.985 21.3323H215.397C215.121 19.8635 214.292 19.1799 212.568 19.1799C210.945 19.1799 210.014 19.9312 210.014 21.0255C210.014 22.1198 210.877 22.5982 213.497 22.9726C218.017 23.6224 220.5 24.7482 220.5 28.5747C220.5 32.4012 217.67 34.4498 212.911 34.4498C208.153 34.4498 205.218 32.3312 205.047 28.4708Z" fill="#398FC5"/>
<path d="M11.7534 34.8313L2.06233 25.2336C-0.0207784 23.1706 -0.0207784 19.8272 2.06233 17.7666L18.4394 1.54728C20.5225 -0.51576 23.8984 -0.51576 25.9791 1.54728L42.3537 17.7641C44.4369 19.8272 44.4369 23.1706 42.3537 25.2312L32.6626 34.8289H11.7534V34.8313Z" fill="white"/>
<path d="M32.6665 34.8312C30.3321 31.611 26.5196 29.5117 22.2119 29.5117C17.9042 29.5117 14.0917 31.611 11.7573 34.8312L18.4433 41.4527C20.5264 43.5158 23.9023 43.5158 25.983 41.4527L32.6689 34.8312H32.6665Z" fill="#122A5C"/>
<path d="M42.3537 17.7665L25.9791 1.54728C23.896 -0.51576 20.5201 -0.51576 18.4394 1.54728L2.06233 17.7665C-0.0207781 19.8296 -0.0207781 23.173 2.06233 25.2336L9.13126 32.2344C9.12638 32.0025 9.1215 31.7706 9.1215 31.5387C9.1215 21.7018 13.3633 12.8481 20.1322 6.66865C21.3055 5.59847 23.1057 5.59847 24.2789 6.66865C31.0478 12.8481 35.2897 21.7018 35.2897 31.5387C35.2897 31.7706 35.2848 32.0025 35.2799 32.2344L42.3488 25.2336C44.432 23.1706 44.432 19.8272 42.3488 17.7665H42.3537Z" fill="#398FC5"/>
</svg>
